<svg width="100%" height="100%" xmlns="http://www.w3.org/2000/svg" xmlns:xlink="http://www.w3.org/1999/xlink" viewBox="0.00 0.00 1990.8900508880615 411.3747010231018" style="background:#2a2b2e">
<g id="graph0" class="graph" transform="translate(-362.58,677.9346685791015) scale(0.98)">

<!-- eth&#45;0x46161158b1947d9149e066d6d31af1283b2d377c -->
<polygon points="390.5,-272 390.5,-687.5299682617188 2401.5,-687.5299682617188 2401.5,-272 390.5,-272" fill="#00000000"/><g class="graphWatermark" id="customWatermark"><a xlink:href="https://metasleuth.io" target="_blank"><image class="watermarkImg" style="opacity: 0.5" href="https://assets.blocksec.com/image/1675917957172-7.png" x="2207.043017926715" y="-313.5633244126104" width="194.45698207328462" height="41.56332441261045"/></a></g><g id="node1" class="node addressNode s-rect-s k-eth-0x46161158b1947d9149e066d6d31af1283b2d377c-k index_hover__uIJ3t">
<title>eth-0x46161158b1947d9149e066d6d31af1283b2d377c</title>
<g id="a_node1"><a xlink:title="eth-0x46161158b1947d9149e066d6d31af1283b2d377c" target="__blank" href="https://etherscan.io/address/0x46161158b1947d9149e066d6d31af1283b2d377c">
<path fill="#212121" stroke="#212121" d="M659.5,-391C659.5,-391 402.5,-391 402.5,-391 396.5,-391 390.5,-385 390.5,-379 390.5,-379 390.5,-331 390.5,-331 390.5,-325 396.5,-319 402.5,-319 402.5,-319 659.5,-319 659.5,-319 665.5,-319 671.5,-325 671.5,-331 671.5,-331 671.5,-379 671.5,-379 671.5,-385 665.5,-391 659.5,-391" stroke-width="1" style="filter: none;"/>
<image xlink:href="https://assets.blocksec.com/image/1671685360787-7.png" width="24px" height="24px" preserveAspectRatio="xMinYMin meet" x="401.5" y="-367"/>
<text text-anchor="start" x="433" y="-367" font-family="Poppins-Regular" font-size="12.00" fill="#ffffff">dfx-xidr-usdc-v2 (dfx-xidr-....  </text>
<text text-anchor="start" x="433" y="-350" font-family="Menlo" font-size="12.00" fill="#ffffff" style="opacity: 0.58;">0x46161158b1947d9149e066d6d31af1</text>
<text text-anchor="start" x="433" y="-335" font-family="Menlo" font-size="12.00" fill="#ffffff" style="opacity: 0.58;">283b2d377c</text>
</a>
</g>
</g>
<!-- label_eth&#45;0x46161158b1947d9149e066d6d31af1283b2d377c_eth&#45;0x6cfa86a352339e766ff1ca119c8c40824f41f22d_0xebf2096e01455108badcbaf86ce30b6e5a72aa52_false -->
<g id="node5" class="node labelNode w-3-w i-1-i k-label_eth-0x46161158b1947d9149e066d6d31af1283b2d377c_eth-0x6cfa86a352339e766ff1ca119c8c40824f41f22d_0xebf2096e01455108badcbaf86ce30b6e5a72aa52_false-k index_hover__uIJ3t">
<title>label_eth-0x46161158b1947d9149e066d6d31af1283b2d377c_eth-0x6cfa86a352339e766ff1ca119c8c40824f41f22d_0xebf2096e01455108badcbaf86ce30b6e5a72aa52_false</title>
<g id="a_node5"><a xlink:title="from:0x46161158b1947d9149e066d6d31af1283b2d377c to:0x6cfa86a352339e766ff1ca119c8c40824f41f22d">
<polygon fill="transparent" stroke="transparent" points="1096.5,-537 816.5,-537 816.5,-497 1096.5,-497 1096.5,-537"/>
<polygon fill="transparent" stroke="transparent" points="1096.5,-537 816.5,-537 816.5,-497 1096.5,-497 1096.5,-537"/>
<text text-anchor="start" x="832.5" y="-524" font-family="Poppins-Regular" font-size="12" fill="#b5b4b2">[1] </text>
<text text-anchor="start" x="855.7123384475708" y="-524" font-family="Poppins-Regular" font-size="12" fill="#fff">[2022-11-10 19:27] 4,594,720,309 XIDR</text>
</a>
</g>
<path d="M816.5,-517L1096.5,-517" stroke="#b5b4b2" stroke-width="3" fill="red"/></g>
<!-- eth&#45;0x46161158b1947d9149e066d6d31af1283b2d377c&#45;&gt;label_eth&#45;0x46161158b1947d9149e066d6d31af1283b2d377c_eth&#45;0x6cfa86a352339e766ff1ca119c8c40824f41f22d_0xebf2096e01455108badcbaf86ce30b6e5a72aa52_false -->
<g id="edge1" class="edge i-1-i w-3-w k-eth-0x46161158b1947d9149e066d6d31af1283b2d377c-&gt;label_eth-0x46161158b1947d9149e066d6d31af1283b2d377c_eth-0x6cfa86a352339e766ff1ca119c8c40824f41f22d_0xebf2096e01455108badcbaf86ce30b6e5a72aa52_false-k edge-bound">
<title>eth-0x46161158b1947d9149e066d6d31af1283b2d377c-&gt;label_eth-0x46161158b1947d9149e066d6d31af1283b2d377c_eth-0x6cfa86a352339e766ff1ca119c8c40824f41f22d_0xebf2096e01455108badcbaf86ce30b6e5a72aa52_false</title>
<g id="a_edge1"><a xlink:title="from:0x46161158b1947d9149e066d6d31af1283b2d377c to:0x6cfa86a352339e766ff1ca119c8c40824f41f22d">
<path fill="none" stroke="#b5b4b2" stroke-width="3" d="M673.5,-367L679.4583333333334,-367C685.4166666666666,-367,697.3333333333334,-367,709.25,-379.5C721.1666666666666,-392,733.0833333333334,-417,745,-442C756.9166666666666,-467,768.8333333333334,-492,780.75,-504.5C792.6666666666666,-517,804.5833333333334,-517,810.5416666666666,-517L816.5,-517"/>
</a>
</g>
</g>
<!-- label_eth&#45;0x46161158b1947d9149e066d6d31af1283b2d377c_eth&#45;0x6cfa86a352339e766ff1ca119c8c40824f41f22d_0xa0b86991c6218b36c1d19d4a2e9eb0ce3606eb48_false -->
<g id="node6" class="node labelNode w-3-w i-2-i k-label_eth-0x46161158b1947d9149e066d6d31af1283b2d377c_eth-0x6cfa86a352339e766ff1ca119c8c40824f41f22d_0xa0b86991c6218b36c1d19d4a2e9eb0ce3606eb48_false-k index_hover__uIJ3t">
<title>label_eth-0x46161158b1947d9149e066d6d31af1283b2d377c_eth-0x6cfa86a352339e766ff1ca119c8c40824f41f22d_0xa0b86991c6218b36c1d19d4a2e9eb0ce3606eb48_false</title>
<g id="a_node6"><a xlink:title="from:0x46161158b1947d9149e066d6d31af1283b2d377c to:0x6cfa86a352339e766ff1ca119c8c40824f41f22d">
<polygon fill="transparent" stroke="transparent" points="1096.5,-462 816.5,-462 816.5,-422 1096.5,-422 1096.5,-462"/>
<polygon fill="transparent" stroke="transparent" points="1096.5,-462 816.5,-462 816.5,-422 1096.5,-422 1096.5,-462"/>
<text text-anchor="start" x="832.5" y="-449" font-family="Poppins-Regular" font-size="12" fill="#2875ca">[2] </text>
<text text-anchor="start" x="858.8195400238037" y="-449" font-family="Poppins-Regular" font-size="12" fill="#fff">[2022-11-10 19:27] 199,266.26 USDC</text>
</a>
</g>
<path d="M816.5,-442L1096.5,-442" stroke="#2875ca" stroke-width="3" fill="red"/></g>
<!-- eth&#45;0x46161158b1947d9149e066d6d31af1283b2d377c&#45;&gt;label_eth&#45;0x46161158b1947d9149e066d6d31af1283b2d377c_eth&#45;0x6cfa86a352339e766ff1ca119c8c40824f41f22d_0xa0b86991c6218b36c1d19d4a2e9eb0ce3606eb48_false -->
<g id="edge3" class="edge i-2-i w-3-w k-eth-0x46161158b1947d9149e066d6d31af1283b2d377c-&gt;label_eth-0x46161158b1947d9149e066d6d31af1283b2d377c_eth-0x6cfa86a352339e766ff1ca119c8c40824f41f22d_0xa0b86991c6218b36c1d19d4a2e9eb0ce3606eb48_false-k edge-bound">
<title>eth-0x46161158b1947d9149e066d6d31af1283b2d377c-&gt;label_eth-0x46161158b1947d9149e066d6d31af1283b2d377c_eth-0x6cfa86a352339e766ff1ca119c8c40824f41f22d_0xa0b86991c6218b36c1d19d4a2e9eb0ce3606eb48_false</title>
<g id="a_edge3"><a xlink:title="from:0x46161158b1947d9149e066d6d31af1283b2d377c to:0x6cfa86a352339e766ff1ca119c8c40824f41f22d">
<path fill="none" stroke="#2875ca" stroke-width="3" d="M673.5,-367L679.4583333333334,-367C685.4166666666666,-367,697.3333333333334,-367,709.25,-373.25C721.1666666666666,-379.5,733.0833333333334,-392,745,-404.5C756.9166666666666,-417,768.8333333333334,-429.5,780.75,-435.75C792.6666666666666,-442,804.5833333333334,-442,810.5416666666666,-442L816.5,-442"/>
</a>
</g>
</g>
<!-- label_eth&#45;0x46161158b1947d9149e066d6d31af1283b2d377c_eth&#45;0x27e843260c71443b4cc8cb6bf226c3f77b9695af_0xebf2096e01455108badcbaf86ce30b6e5a72aa52_false -->
<g id="node10" class="node labelNode w-3-w i-6-i k-label_eth-0x46161158b1947d9149e066d6d31af1283b2d377c_eth-0x27e843260c71443b4cc8cb6bf226c3f77b9695af_0xebf2096e01455108badcbaf86ce30b6e5a72aa52_false-k index_hover__uIJ3t">
<title>label_eth-0x46161158b1947d9149e066d6d31af1283b2d377c_eth-0x27e843260c71443b4cc8cb6bf226c3f77b9695af_0xebf2096e01455108badcbaf86ce30b6e5a72aa52_false</title>
<g id="a_node10"><a xlink:title="from:0x46161158b1947d9149e066d6d31af1283b2d377c to:0x27e843260c71443b4cc8cb6bf226c3f77b9695af">
<polygon fill="transparent" stroke="transparent" points="1096.5,-387 816.5,-387 816.5,-347 1096.5,-347 1096.5,-387"/>
<polygon fill="transparent" stroke="transparent" points="1096.5,-387 816.5,-387 816.5,-347 1096.5,-347 1096.5,-387"/>
<text text-anchor="start" x="832.5" y="-374" font-family="Poppins-Regular" font-size="12" fill="#b5b4b2">[6] </text>
<text text-anchor="start" x="859.5963401794434" y="-374" font-family="Poppins-Regular" font-size="12" fill="#fff">[2022-11-10 19:27] 13,953,488.37 XIDR</text>
</a>
</g>
<path d="M816.5,-367L1096.5,-367" stroke="#b5b4b2" stroke-width="3" fill="red"/></g>
<!-- eth&#45;0x46161158b1947d9149e066d6d31af1283b2d377c&#45;&gt;label_eth&#45;0x46161158b1947d9149e066d6d31af1283b2d377c_eth&#45;0x27e843260c71443b4cc8cb6bf226c3f77b9695af_0xebf2096e01455108badcbaf86ce30b6e5a72aa52_false -->
<g id="edge11" class="edge i-6-i w-3-w k-eth-0x46161158b1947d9149e066d6d31af1283b2d377c-&gt;label_eth-0x46161158b1947d9149e066d6d31af1283b2d377c_eth-0x27e843260c71443b4cc8cb6bf226c3f77b9695af_0xebf2096e01455108badcbaf86ce30b6e5a72aa52_false-k edge-bound">
<title>eth-0x46161158b1947d9149e066d6d31af1283b2d377c-&gt;label_eth-0x46161158b1947d9149e066d6d31af1283b2d377c_eth-0x27e843260c71443b4cc8cb6bf226c3f77b9695af_0xebf2096e01455108badcbaf86ce30b6e5a72aa52_false</title>
<g id="a_edge11"><a xlink:title="from:0x46161158b1947d9149e066d6d31af1283b2d377c to:0x27e843260c71443b4cc8cb6bf226c3f77b9695af">
<path fill="none" stroke="#b5b4b2" stroke-width="3" d="M673.5,-367L679.4583333333334,-367C685.4166666666666,-367,697.3333333333334,-367,709.25,-367C721.1666666666666,-367,733.0833333333334,-367,745,-367C756.9166666666666,-367,768.8333333333334,-367,780.75,-367C792.6666666666666,-367,804.5833333333334,-367,810.5416666666666,-367L816.5,-367"/>
</a>
</g>
</g>
<!-- label_eth&#45;0x46161158b1947d9149e066d6d31af1283b2d377c_eth&#45;0x27e843260c71443b4cc8cb6bf226c3f77b9695af_0xa0b86991c6218b36c1d19d4a2e9eb0ce3606eb48_false -->
<g id="node11" class="node labelNode w-3-w i-7-i k-label_eth-0x46161158b1947d9149e066d6d31af1283b2d377c_eth-0x27e843260c71443b4cc8cb6bf226c3f77b9695af_0xa0b86991c6218b36c1d19d4a2e9eb0ce3606eb48_false-k index_hover__uIJ3t">
<title>label_eth-0x46161158b1947d9149e066d6d31af1283b2d377c_eth-0x27e843260c71443b4cc8cb6bf226c3f77b9695af_0xa0b86991c6218b36c1d19d4a2e9eb0ce3606eb48_false</title>
<g id="a_node11"><a xlink:title="from:0x46161158b1947d9149e066d6d31af1283b2d377c to:0x27e843260c71443b4cc8cb6bf226c3f77b9695af">
<polygon fill="transparent" stroke="transparent" points="1096.5,-312 816.5,-312 816.5,-272 1096.5,-272 1096.5,-312"/>
<polygon fill="transparent" stroke="transparent" points="1096.5,-312 816.5,-312 816.5,-272 1096.5,-272 1096.5,-312"/>
<text text-anchor="start" x="832.5" y="-299" font-family="Poppins-Regular" font-size="12" fill="#2875ca">[7] </text>
<text text-anchor="start" x="858.5821838378906" y="-299" font-family="Poppins-Regular" font-size="12" fill="#fff">[2022-11-10 19:27] 600 USDC</text>
</a>
</g>
<path d="M816.5,-292L1096.5,-292" stroke="#2875ca" stroke-width="3" fill="red"/></g>
<!-- eth&#45;0x46161158b1947d9149e066d6d31af1283b2d377c&#45;&gt;label_eth&#45;0x46161158b1947d9149e066d6d31af1283b2d377c_eth&#45;0x27e843260c71443b4cc8cb6bf226c3f77b9695af_0xa0b86991c6218b36c1d19d4a2e9eb0ce3606eb48_false -->
<g id="edge13" class="edge i-7-i w-3-w k-eth-0x46161158b1947d9149e066d6d31af1283b2d377c-&gt;label_eth-0x46161158b1947d9149e066d6d31af1283b2d377c_eth-0x27e843260c71443b4cc8cb6bf226c3f77b9695af_0xa0b86991c6218b36c1d19d4a2e9eb0ce3606eb48_false-k edge-bound">
<title>eth-0x46161158b1947d9149e066d6d31af1283b2d377c-&gt;label_eth-0x46161158b1947d9149e066d6d31af1283b2d377c_eth-0x27e843260c71443b4cc8cb6bf226c3f77b9695af_0xa0b86991c6218b36c1d19d4a2e9eb0ce3606eb48_false</title>
<g id="a_edge13"><a xlink:title="from:0x46161158b1947d9149e066d6d31af1283b2d377c to:0x27e843260c71443b4cc8cb6bf226c3f77b9695af">
<path fill="none" stroke="#2875ca" stroke-width="3" d="M673.5,-367L679.4583333333334,-367C685.4166666666666,-367,697.3333333333334,-367,709.25,-360.75C721.1666666666666,-354.5,733.0833333333334,-342,745,-329.5C756.9166666666666,-317,768.8333333333334,-304.5,780.75,-298.25C792.6666666666666,-292,804.5833333333334,-292,810.5416666666666,-292L816.5,-292"/>
</a>
</g>
</g>
<!-- eth&#45;0x6cfa86a352339e766ff1ca119c8c40824f41f22d -->
<g id="node2" class="node addressNode s-rect-s k-eth-0x6cfa86a352339e766ff1ca119c8c40824f41f22d-k index_hover__uIJ3t">
<title>eth-0x6cfa86a352339e766ff1ca119c8c40824f41f22d</title>
<g id="a_node2"><a xlink:title="eth-0x6cfa86a352339e766ff1ca119c8c40824f41f22d" target="__blank" href="https://etherscan.io/address/0x6cfa86a352339e766ff1ca119c8c40824f41f22d">
<path fill="#212121" stroke="#212121" d="M1524.5,-538C1524.5,-538 1267.5,-538 1267.5,-538 1261.5,-538 1255.5,-532 1255.5,-526 1255.5,-526 1255.5,-478 1255.5,-478 1255.5,-472 1261.5,-466 1267.5,-466 1267.5,-466 1524.5,-466 1524.5,-466 1530.5,-466 1536.5,-472 1536.5,-478 1536.5,-478 1536.5,-526 1536.5,-526 1536.5,-532 1530.5,-538 1524.5,-538" stroke-width="1" style="filter: none;"/>
<image xlink:href="https://assets.blocksec.com/image/1671685360787-7.png" width="24px" height="24px" preserveAspectRatio="xMinYMin meet" x="1266.5" y="-514"/>
<text text-anchor="start" x="1298" y="-514" font-family="Poppins-Regular" font-size="12.00" fill="#ffffff">DFX Finance Exploiter 2  </text>
<text text-anchor="start" x="1298" y="-497" font-family="Menlo" font-size="12.00" fill="#ffffff" style="opacity: 0.58;">0x6cfa86a352339e766ff1ca119c8c40</text>
<text text-anchor="start" x="1298" y="-482" font-family="Menlo" font-size="12.00" fill="#ffffff" style="opacity: 0.58;">824f41f22d</text>
</a>
</g>
</g>
<!-- label_eth&#45;0x6cfa86a352339e766ff1ca119c8c40824f41f22d_eth&#45;0x46161158b1947d9149e066d6d31af1283b2d377c_0xebf2096e01455108badcbaf86ce30b6e5a72aa52_false -->
<g id="node7" class="node labelNode w-3-w i-3-i k-label_eth-0x6cfa86a352339e766ff1ca119c8c40824f41f22d_eth-0x46161158b1947d9149e066d6d31af1283b2d377c_0xebf2096e01455108badcbaf86ce30b6e5a72aa52_false-k index_hover__uIJ3t">
<title>label_eth-0x6cfa86a352339e766ff1ca119c8c40824f41f22d_eth-0x46161158b1947d9149e066d6d31af1283b2d377c_0xebf2096e01455108badcbaf86ce30b6e5a72aa52_false</title>
<g id="a_node7"><a xlink:title="from:0x6cfa86a352339e766ff1ca119c8c40824f41f22d to:0x46161158b1947d9149e066d6d31af1283b2d377c">
<polygon fill="transparent" stroke="transparent" points="1096.5,-687 816.5,-687 816.5,-647 1096.5,-647 1096.5,-687"/>
<polygon fill="transparent" stroke="transparent" points="1096.5,-687 816.5,-687 816.5,-647 1096.5,-647 1096.5,-687"/>
<text text-anchor="start" x="832.5" y="-674" font-family="Poppins-Regular" font-size="12" fill="#b5b4b2">[3] </text>
<text text-anchor="start" x="858.9274291992188" y="-674" font-family="Poppins-Regular" font-size="12" fill="#fff">[2022-11-10 19:27] 2,325,581,395.33 XIDR</text>
</a>
</g>
<path d="M816.5,-667L1096.5,-667" stroke="#b5b4b2" stroke-width="3" fill="red"/></g>
<!-- eth&#45;0x6cfa86a352339e766ff1ca119c8c40824f41f22d&#45;&gt;label_eth&#45;0x6cfa86a352339e766ff1ca119c8c40824f41f22d_eth&#45;0x46161158b1947d9149e066d6d31af1283b2d377c_0xebf2096e01455108badcbaf86ce30b6e5a72aa52_false -->
<g id="edge5" class="edge i-3-i w-3-w k-eth-0x6cfa86a352339e766ff1ca119c8c40824f41f22d-&gt;label_eth-0x6cfa86a352339e766ff1ca119c8c40824f41f22d_eth-0x46161158b1947d9149e066d6d31af1283b2d377c_0xebf2096e01455108badcbaf86ce30b6e5a72aa52_false-k edge-bound">
<title>eth-0x6cfa86a352339e766ff1ca119c8c40824f41f22d-&gt;label_eth-0x6cfa86a352339e766ff1ca119c8c40824f41f22d_eth-0x46161158b1947d9149e066d6d31af1283b2d377c_0xebf2096e01455108badcbaf86ce30b6e5a72aa52_false</title>
<g id="a_edge5"><a xlink:title="from:0x6cfa86a352339e766ff1ca119c8c40824f41f22d to:0x46161158b1947d9149e066d6d31af1283b2d377c">
<path fill="none" stroke="#b5b4b2" stroke-width="3" d="M1253.5,-494L1246.9583333333333,-494C1240.4166666666667,-494,1227.3333333333333,-494,1214.25,-508.4166666666667C1201.1666666666667,-522.8333333333334,1188.0833333333333,-551.6666666666666,1175,-580.5C1161.9166666666667,-609.3333333333334,1148.8333333333333,-638.1666666666666,1135.75,-652.5833333333334C1122.6666666666667,-667,1109.5833333333333,-667,1103.0416666666667,-667L1096.5,-667"/>
</a>
</g>
</g>
<!-- label_eth&#45;0x6cfa86a352339e766ff1ca119c8c40824f41f22d_eth&#45;0x46161158b1947d9149e066d6d31af1283b2d377c_0xa0b86991c6218b36c1d19d4a2e9eb0ce3606eb48_false -->
<g id="node8" class="node labelNode w-3-w i-4-i k-label_eth-0x6cfa86a352339e766ff1ca119c8c40824f41f22d_eth-0x46161158b1947d9149e066d6d31af1283b2d377c_0xa0b86991c6218b36c1d19d4a2e9eb0ce3606eb48_false-k index_hover__uIJ3t">
<title>label_eth-0x6cfa86a352339e766ff1ca119c8c40824f41f22d_eth-0x46161158b1947d9149e066d6d31af1283b2d377c_0xa0b86991c6218b36c1d19d4a2e9eb0ce3606eb48_false</title>
<g id="a_node8"><a xlink:title="from:0x6cfa86a352339e766ff1ca119c8c40824f41f22d to:0x46161158b1947d9149e066d6d31af1283b2d377c">
<polygon fill="transparent" stroke="transparent" points="1096.5,-612 816.5,-612 816.5,-572 1096.5,-572 1096.5,-612"/>
<polygon fill="transparent" stroke="transparent" points="1096.5,-612 816.5,-612 816.5,-572 1096.5,-572 1096.5,-612"/>
<text text-anchor="start" x="832.5" y="-599" font-family="Poppins-Regular" font-size="12" fill="#2875ca">[4] </text>
<text text-anchor="start" x="859.4668731689453" y="-599" font-family="Poppins-Regular" font-size="12" fill="#fff">[2022-11-10 19:27] 100,000 USDC</text>
</a>
</g>
<path d="M816.5,-592L1096.5,-592" stroke="#2875ca" stroke-width="3" fill="red"/></g>
<!-- eth&#45;0x6cfa86a352339e766ff1ca119c8c40824f41f22d&#45;&gt;label_eth&#45;0x6cfa86a352339e766ff1ca119c8c40824f41f22d_eth&#45;0x46161158b1947d9149e066d6d31af1283b2d377c_0xa0b86991c6218b36c1d19d4a2e9eb0ce3606eb48_false -->
<g id="edge7" class="edge i-4-i w-3-w k-eth-0x6cfa86a352339e766ff1ca119c8c40824f41f22d-&gt;label_eth-0x6cfa86a352339e766ff1ca119c8c40824f41f22d_eth-0x46161158b1947d9149e066d6d31af1283b2d377c_0xa0b86991c6218b36c1d19d4a2e9eb0ce3606eb48_false-k edge-bound">
<title>eth-0x6cfa86a352339e766ff1ca119c8c40824f41f22d-&gt;label_eth-0x6cfa86a352339e766ff1ca119c8c40824f41f22d_eth-0x46161158b1947d9149e066d6d31af1283b2d377c_0xa0b86991c6218b36c1d19d4a2e9eb0ce3606eb48_false</title>
<g id="a_edge7"><a xlink:title="from:0x6cfa86a352339e766ff1ca119c8c40824f41f22d to:0x46161158b1947d9149e066d6d31af1283b2d377c">
<path fill="none" stroke="#2875ca" stroke-width="3" d="M1253.5,-494L1246.9583333333333,-494C1240.4166666666667,-494,1227.3333333333333,-494,1214.25,-502.1666666666667C1201.1666666666667,-510.3333333333333,1188.0833333333333,-526.6666666666666,1175,-543C1161.9166666666667,-559.3333333333334,1148.8333333333333,-575.6666666666666,1135.75,-583.8333333333334C1122.6666666666667,-592,1109.5833333333333,-592,1103.0416666666667,-592L1096.5,-592"/>
</a>
</g>
</g>
<!-- label_eth&#45;0x6cfa86a352339e766ff1ca119c8c40824f41f22d_eth&#45;0x0000000000000000000000000000000000000000_0x46161158b1947d9149e066d6d31af1283b2d377c_false -->
<g id="node12" class="node labelNode w-3-w i-8-i k-label_eth-0x6cfa86a352339e766ff1ca119c8c40824f41f22d_eth-0x0000000000000000000000000000000000000000_0x46161158b1947d9149e066d6d31af1283b2d377c_false-k index_hover__uIJ3t">
<title>label_eth-0x6cfa86a352339e766ff1ca119c8c40824f41f22d_eth-0x0000000000000000000000000000000000000000_0x46161158b1947d9149e066d6d31af1283b2d377c_false</title>
<g id="a_node12"><a xlink:title="from:0x6cfa86a352339e766ff1ca119c8c40824f41f22d to:0x0000000000000000000000000000000000000000">
<polygon fill="transparent" stroke="transparent" points="1961.5,-442 1681.5,-442 1681.5,-402 1961.5,-402 1961.5,-442"/>
<polygon fill="transparent" stroke="transparent" points="1961.5,-442 1681.5,-442 1681.5,-402 1961.5,-402 1961.5,-442"/>
<text text-anchor="start" x="1697.5" y="-429" font-family="Poppins-Regular" font-size="12" fill="#b5b4b2" style="">[8] </text>
<text text-anchor="start" x="1724.4884510040283" y="-429" font-family="Poppins-Regular" font-size="12" fill="#fff">[2022-11-10 19:27] 387,023.84 dfx-xidr-v...</text>
</a>
</g>
<path d="M1681.5,-422L1961.5,-422" stroke="#b5b4b2" stroke-width="3" fill="red"/></g>
<!-- eth&#45;0x6cfa86a352339e766ff1ca119c8c40824f41f22d&#45;&gt;label_eth&#45;0x6cfa86a352339e766ff1ca119c8c40824f41f22d_eth&#45;0x0000000000000000000000000000000000000000_0x46161158b1947d9149e066d6d31af1283b2d377c_false -->
<g id="edge15" class="edge i-8-i w-3-w k-eth-0x6cfa86a352339e766ff1ca119c8c40824f41f22d-&gt;label_eth-0x6cfa86a352339e766ff1ca119c8c40824f41f22d_eth-0x0000000000000000000000000000000000000000_0x46161158b1947d9149e066d6d31af1283b2d377c_false-k edge-bound">
<title>eth-0x6cfa86a352339e766ff1ca119c8c40824f41f22d-&gt;label_eth-0x6cfa86a352339e766ff1ca119c8c40824f41f22d_eth-0x0000000000000000000000000000000000000000_0x46161158b1947d9149e066d6d31af1283b2d377c_false</title>
<g id="a_edge15"><a xlink:title="from:0x6cfa86a352339e766ff1ca119c8c40824f41f22d to:0x0000000000000000000000000000000000000000">
<path fill="none" stroke="#b5b4b2" stroke-width="3" d="M1538.5,-514L1544.4583333333333,-514C1550.4166666666667,-514,1562.3333333333333,-514,1574.25,-506.3333333333333C1586.1666666666667,-498.6666666666667,1598.0833333333333,-483.3333333333333,1610,-468C1621.9166666666667,-452.6666666666667,1633.8333333333333,-437.3333333333333,1645.75,-429.6666666666667C1657.6666666666667,-422,1669.5833333333333,-422,1675.5416666666667,-422L1681.5,-422"/>
</a>
</g>
</g>
<!-- eth&#45;0x0000000000000000000000000000000000000000 -->
<g id="node3" class="node addressNode s-rect-s k-eth-0x0000000000000000000000000000000000000000-k index_hover__uIJ3t">
<title>eth-0x0000000000000000000000000000000000000000</title>
<g id="a_node3"><a xlink:title="eth-0x0000000000000000000000000000000000000000" target="__blank" href="https://etherscan.io/address/0x0000000000000000000000000000000000000000">
<path fill="#212121" stroke="#212121" d="M2389.5,-391C2389.5,-391 2132.5,-391 2132.5,-391 2126.5,-391 2120.5,-385 2120.5,-379 2120.5,-379 2120.5,-331 2120.5,-331 2120.5,-325 2126.5,-319 2132.5,-319 2132.5,-319 2389.5,-319 2389.5,-319 2395.5,-319 2401.5,-325 2401.5,-331 2401.5,-331 2401.5,-379 2401.5,-379 2401.5,-385 2395.5,-391 2389.5,-391" stroke-width="1" style="filter: none;"/>
<image xlink:href="https://assets.blocksec.com/image/1671685360787-7.png" width="24px" height="24px" preserveAspectRatio="xMinYMin meet" x="2131.5" y="-367"/>
<text text-anchor="start" x="2163" y="-359" font-family="Menlo" font-size="12.00" fill="#ffffff" style="opacity: 0.58;">0x000000000000000000000000000000</text>
<text text-anchor="start" x="2163" y="-344" font-family="Menlo" font-size="12.00" fill="#ffffff" style="opacity: 0.58;">0000000000</text>
</a>
</g>
</g>
<!-- label_eth&#45;0x0000000000000000000000000000000000000000_eth&#45;0x6cfa86a352339e766ff1ca119c8c40824f41f22d_0x46161158b1947d9149e066d6d31af1283b2d377c_false -->
<g id="node9" class="node labelNode w-3-w i-5-i k-label_eth-0x0000000000000000000000000000000000000000_eth-0x6cfa86a352339e766ff1ca119c8c40824f41f22d_0x46161158b1947d9149e066d6d31af1283b2d377c_false-k index_hover__uIJ3t">
<title>label_eth-0x0000000000000000000000000000000000000000_eth-0x6cfa86a352339e766ff1ca119c8c40824f41f22d_0x46161158b1947d9149e066d6d31af1283b2d377c_false</title>
<g id="a_node9"><a xlink:title="from:0x0000000000000000000000000000000000000000 to:0x6cfa86a352339e766ff1ca119c8c40824f41f22d">
<polygon fill="transparent" stroke="transparent" points="1961.5,-367 1681.5,-367 1681.5,-327 1961.5,-327 1961.5,-367"/>
<polygon fill="transparent" stroke="transparent" points="1961.5,-367 1681.5,-367 1681.5,-327 1961.5,-327 1961.5,-367"/>
<text text-anchor="start" x="1697.5" y="-354" font-family="Poppins-Regular" font-size="12" fill="#b5b4b2" style="">[5] </text>
<text text-anchor="start" x="1724.4668731689453" y="-354" font-family="Poppins-Regular" font-size="12" fill="#fff">[2022-11-10 19:27] 387,023.84 dfx-xidr-v...</text>
</a>
</g>
<path d="M1681.5,-347L1961.5,-347" stroke="#b5b4b2" stroke-width="3" fill="red"/></g>
<!-- eth&#45;0x0000000000000000000000000000000000000000&#45;&gt;label_eth&#45;0x0000000000000000000000000000000000000000_eth&#45;0x6cfa86a352339e766ff1ca119c8c40824f41f22d_0x46161158b1947d9149e066d6d31af1283b2d377c_false -->
<g id="edge9" class="edge i-5-i w-3-w k-eth-0x0000000000000000000000000000000000000000-&gt;label_eth-0x0000000000000000000000000000000000000000_eth-0x6cfa86a352339e766ff1ca119c8c40824f41f22d_0x46161158b1947d9149e066d6d31af1283b2d377c_false-k edge-bound">
<title>eth-0x0000000000000000000000000000000000000000-&gt;label_eth-0x0000000000000000000000000000000000000000_eth-0x6cfa86a352339e766ff1ca119c8c40824f41f22d_0x46161158b1947d9149e066d6d31af1283b2d377c_false</title>
<g id="a_edge9"><a xlink:title="from:0x0000000000000000000000000000000000000000 to:0x6cfa86a352339e766ff1ca119c8c40824f41f22d">
<path fill="none" stroke="#b5b4b2" stroke-width="3" d="M2118.5,-347L2111.9583333333335,-347C2105.4166666666665,-347,2092.3333333333335,-347,2079.25,-347C2066.1666666666665,-347,2053.0833333333335,-347,2040,-347C2026.9166666666667,-347,2013.8333333333333,-347,2000.75,-347C1987.6666666666667,-347,1974.5833333333333,-347,1968.0416666666667,-347L1961.5,-347"/>
</a>
</g>
</g>
<!-- eth&#45;0x27e843260c71443b4cc8cb6bf226c3f77b9695af -->
<g id="node4" class="node addressNode s-rect-s k-eth-0x27e843260c71443b4cc8cb6bf226c3f77b9695af-k index_hover__uIJ3t">
<title>eth-0x27e843260c71443b4cc8cb6bf226c3f77b9695af</title>
<g id="a_node4"><a xlink:title="eth-0x27e843260c71443b4cc8cb6bf226c3f77b9695af" target="__blank" href="https://etherscan.io/address/0x27e843260c71443b4cc8cb6bf226c3f77b9695af">
<path fill="#212121" stroke="#212121" d="M1524.5,-391C1524.5,-391 1267.5,-391 1267.5,-391 1261.5,-391 1255.5,-385 1255.5,-379 1255.5,-379 1255.5,-331 1255.5,-331 1255.5,-325 1261.5,-319 1267.5,-319 1267.5,-319 1524.5,-319 1524.5,-319 1530.5,-319 1536.5,-325 1536.5,-331 1536.5,-331 1536.5,-379 1536.5,-379 1536.5,-385 1530.5,-391 1524.5,-391" stroke-width="1" style="filter: none;"/>
<image xlink:href="https://assets.blocksec.com/image/1671685360787-7.png" width="24px" height="24px" preserveAspectRatio="xMinYMin meet" x="1266.5" y="-367"/>
<text text-anchor="start" x="1298" y="-367" font-family="Poppins-Regular" font-size="12.00" fill="#ffffff">DFX Finance: Governance Mult...  </text>
<text text-anchor="start" x="1298" y="-350" font-family="Menlo" font-size="12.00" fill="#ffffff" style="opacity: 0.58;">0x27e843260c71443b4cc8cb6bf226c3</text>
<text text-anchor="start" x="1298" y="-335" font-family="Menlo" font-size="12.00" fill="#ffffff" style="opacity: 0.58;">f77b9695af</text>
</a>
</g>
</g>
<!-- label_eth&#45;0x46161158b1947d9149e066d6d31af1283b2d377c_eth&#45;0x6cfa86a352339e766ff1ca119c8c40824f41f22d_0xebf2096e01455108badcbaf86ce30b6e5a72aa52_false&#45;&gt;eth&#45;0x6cfa86a352339e766ff1ca119c8c40824f41f22d -->
<g id="edge2" class="edge i-1-i w-3-w k-label_eth-0x46161158b1947d9149e066d6d31af1283b2d377c_eth-0x6cfa86a352339e766ff1ca119c8c40824f41f22d_0xebf2096e01455108badcbaf86ce30b6e5a72aa52_false-&gt;eth-0x6cfa86a352339e766ff1ca119c8c40824f41f22d-k edge-bound">
<title>label_eth-0x46161158b1947d9149e066d6d31af1283b2d377c_eth-0x6cfa86a352339e766ff1ca119c8c40824f41f22d_0xebf2096e01455108badcbaf86ce30b6e5a72aa52_false-&gt;eth-0x6cfa86a352339e766ff1ca119c8c40824f41f22d</title>
<g id="a_edge2"><a xlink:title="from:0x46161158b1947d9149e066d6d31af1283b2d377c to:0x6cfa86a352339e766ff1ca119c8c40824f41f22d">
<path fill="none" stroke="#b5b4b2" stroke-width="3" d="M1096.5,-517L1103.0416666666667,-517C1109.5833333333333,-517,1122.6666666666667,-517,1135.75,-516.75C1148.8333333333333,-516.5,1161.9166666666667,-516,1175,-515.5C1188.0833333333333,-515,1201.1666666666667,-514.5,1213.5,-514.25C1225.8333333333333,-514,1237.4166666666667,-514,1243.2083333333333,-514L1249,-514"/>
<polygon fill="#b5b4b2" stroke="#b5b4b2" stroke-width="3" points="1239,-517 1249,-514 1239,-511 1239,-517"/>
</a>
</g>
</g>
<!-- label_eth&#45;0x46161158b1947d9149e066d6d31af1283b2d377c_eth&#45;0x6cfa86a352339e766ff1ca119c8c40824f41f22d_0xa0b86991c6218b36c1d19d4a2e9eb0ce3606eb48_false&#45;&gt;eth&#45;0x6cfa86a352339e766ff1ca119c8c40824f41f22d -->
<g id="edge4" class="edge i-2-i w-3-w k-label_eth-0x46161158b1947d9149e066d6d31af1283b2d377c_eth-0x6cfa86a352339e766ff1ca119c8c40824f41f22d_0xa0b86991c6218b36c1d19d4a2e9eb0ce3606eb48_false-&gt;eth-0x6cfa86a352339e766ff1ca119c8c40824f41f22d-k edge-bound">
<title>label_eth-0x46161158b1947d9149e066d6d31af1283b2d377c_eth-0x6cfa86a352339e766ff1ca119c8c40824f41f22d_0xa0b86991c6218b36c1d19d4a2e9eb0ce3606eb48_false-&gt;eth-0x6cfa86a352339e766ff1ca119c8c40824f41f22d</title>
<g id="a_edge4"><a xlink:title="from:0x46161158b1947d9149e066d6d31af1283b2d377c to:0x6cfa86a352339e766ff1ca119c8c40824f41f22d">
<path fill="none" stroke="#2875ca" stroke-width="3" d="M1096.5,-442L1103.0416666666667,-442C1109.5833333333333,-442,1122.6666666666667,-442,1135.75,-448C1148.8333333333333,-454,1161.9166666666667,-466,1175,-478C1188.0833333333333,-490,1201.1666666666667,-502,1213.5,-508C1225.8333333333333,-514,1237.4166666666667,-514,1243.2083333333333,-514L1249,-514"/>
<polygon fill="#2875ca" stroke="#2875ca" stroke-width="3" points="1239,-517 1249,-514 1239,-511 1239,-517"/>
</a>
</g>
</g>
<!-- label_eth&#45;0x6cfa86a352339e766ff1ca119c8c40824f41f22d_eth&#45;0x46161158b1947d9149e066d6d31af1283b2d377c_0xebf2096e01455108badcbaf86ce30b6e5a72aa52_false&#45;&gt;eth&#45;0x46161158b1947d9149e066d6d31af1283b2d377c -->
<g id="edge6" class="edge i-3-i w-3-w k-label_eth-0x6cfa86a352339e766ff1ca119c8c40824f41f22d_eth-0x46161158b1947d9149e066d6d31af1283b2d377c_0xebf2096e01455108badcbaf86ce30b6e5a72aa52_false-&gt;eth-0x46161158b1947d9149e066d6d31af1283b2d377c-k edge-bound">
<title>label_eth-0x6cfa86a352339e766ff1ca119c8c40824f41f22d_eth-0x46161158b1947d9149e066d6d31af1283b2d377c_0xebf2096e01455108badcbaf86ce30b6e5a72aa52_false-&gt;eth-0x46161158b1947d9149e066d6d31af1283b2d377c</title>
<g id="a_edge6"><a xlink:title="from:0x6cfa86a352339e766ff1ca119c8c40824f41f22d to:0x46161158b1947d9149e066d6d31af1283b2d377c">
<path fill="none" stroke="#b5b4b2" stroke-width="3" d="M816.5,-667L810.5416666666666,-667C804.5833333333334,-667,792.6666666666666,-667,780.75,-640.3333333333334C768.8333333333334,-613.6666666666666,756.9166666666666,-560.3333333333334,745,-507C733.0833333333334,-453.6666666666667,721.1666666666666,-400.3333333333333,710,-373.6666666666667C698.8333333333334,-347,688.4166666666666,-347,683.2083333333334,-347L678,-347"/>
<polygon fill="#b5b4b2" stroke="#b5b4b2" stroke-width="3" points="688,-350 678,-347 688,-344 688,-350"/>
</a>
</g>
</g>
<!-- label_eth&#45;0x6cfa86a352339e766ff1ca119c8c40824f41f22d_eth&#45;0x46161158b1947d9149e066d6d31af1283b2d377c_0xa0b86991c6218b36c1d19d4a2e9eb0ce3606eb48_false&#45;&gt;eth&#45;0x46161158b1947d9149e066d6d31af1283b2d377c -->
<g id="edge8" class="edge i-4-i w-3-w k-label_eth-0x6cfa86a352339e766ff1ca119c8c40824f41f22d_eth-0x46161158b1947d9149e066d6d31af1283b2d377c_0xa0b86991c6218b36c1d19d4a2e9eb0ce3606eb48_false-&gt;eth-0x46161158b1947d9149e066d6d31af1283b2d377c-k edge-bound">
<title>label_eth-0x6cfa86a352339e766ff1ca119c8c40824f41f22d_eth-0x46161158b1947d9149e066d6d31af1283b2d377c_0xa0b86991c6218b36c1d19d4a2e9eb0ce3606eb48_false-&gt;eth-0x46161158b1947d9149e066d6d31af1283b2d377c</title>
<g id="a_edge8"><a xlink:title="from:0x6cfa86a352339e766ff1ca119c8c40824f41f22d to:0x46161158b1947d9149e066d6d31af1283b2d377c">
<path fill="none" stroke="#2875ca" stroke-width="3" d="M816.5,-592L810.5416666666666,-592C804.5833333333334,-592,792.6666666666666,-592,780.75,-571.5833333333334C768.8333333333334,-551.1666666666666,756.9166666666666,-510.3333333333333,745,-469.5C733.0833333333334,-428.6666666666667,721.1666666666666,-387.8333333333333,710,-367.4166666666667C698.8333333333334,-347,688.4166666666666,-347,683.2083333333334,-347L678,-347"/>
<polygon fill="#2875ca" stroke="#2875ca" stroke-width="3" points="688,-350 678,-347 688,-344 688,-350"/>
</a>
</g>
</g>
<!-- label_eth&#45;0x0000000000000000000000000000000000000000_eth&#45;0x6cfa86a352339e766ff1ca119c8c40824f41f22d_0x46161158b1947d9149e066d6d31af1283b2d377c_false&#45;&gt;eth&#45;0x6cfa86a352339e766ff1ca119c8c40824f41f22d -->
<g id="edge10" class="edge i-5-i w-3-w k-label_eth-0x0000000000000000000000000000000000000000_eth-0x6cfa86a352339e766ff1ca119c8c40824f41f22d_0x46161158b1947d9149e066d6d31af1283b2d377c_false-&gt;eth-0x6cfa86a352339e766ff1ca119c8c40824f41f22d-k edge-bound">
<title>label_eth-0x0000000000000000000000000000000000000000_eth-0x6cfa86a352339e766ff1ca119c8c40824f41f22d_0x46161158b1947d9149e066d6d31af1283b2d377c_false-&gt;eth-0x6cfa86a352339e766ff1ca119c8c40824f41f22d</title>
<g id="a_edge10"><a xlink:title="from:0x0000000000000000000000000000000000000000 to:0x6cfa86a352339e766ff1ca119c8c40824f41f22d">
<path fill="none" stroke="#b5b4b2" stroke-width="3" d="M1681.5,-347L1675.5416666666667,-347C1669.5833333333333,-347,1657.6666666666667,-347,1645.75,-359.25C1633.8333333333333,-371.5,1621.9166666666667,-396,1610,-420.5C1598.0833333333333,-445,1586.1666666666667,-469.5,1575,-481.75C1563.8333333333333,-494,1553.4166666666667,-494,1548.2083333333333,-494L1543,-494"/>
<polygon fill="#b5b4b2" stroke="#b5b4b2" stroke-width="3" points="1553,-497 1543,-494 1553,-491 1553,-497"/>
</a>
</g>
</g>
<!-- label_eth&#45;0x46161158b1947d9149e066d6d31af1283b2d377c_eth&#45;0x27e843260c71443b4cc8cb6bf226c3f77b9695af_0xebf2096e01455108badcbaf86ce30b6e5a72aa52_false&#45;&gt;eth&#45;0x27e843260c71443b4cc8cb6bf226c3f77b9695af -->
<g id="edge12" class="edge i-6-i w-3-w k-label_eth-0x46161158b1947d9149e066d6d31af1283b2d377c_eth-0x27e843260c71443b4cc8cb6bf226c3f77b9695af_0xebf2096e01455108badcbaf86ce30b6e5a72aa52_false-&gt;eth-0x27e843260c71443b4cc8cb6bf226c3f77b9695af-k edge-bound">
<title>label_eth-0x46161158b1947d9149e066d6d31af1283b2d377c_eth-0x27e843260c71443b4cc8cb6bf226c3f77b9695af_0xebf2096e01455108badcbaf86ce30b6e5a72aa52_false-&gt;eth-0x27e843260c71443b4cc8cb6bf226c3f77b9695af</title>
<g id="a_edge12"><a xlink:title="from:0x46161158b1947d9149e066d6d31af1283b2d377c to:0x27e843260c71443b4cc8cb6bf226c3f77b9695af">
<path fill="none" stroke="#b5b4b2" stroke-width="3" d="M1096.5,-367L1103.0416666666667,-367C1109.5833333333333,-367,1122.6666666666667,-367,1135.75,-367C1148.8333333333333,-367,1161.9166666666667,-367,1175,-367C1188.0833333333333,-367,1201.1666666666667,-367,1213.5,-367C1225.8333333333333,-367,1237.4166666666667,-367,1243.2083333333333,-367L1249,-367"/>
<polygon fill="#b5b4b2" stroke="#b5b4b2" stroke-width="3" points="1239,-370 1249,-367 1239,-364 1239,-370"/>
</a>
</g>
</g>
<!-- label_eth&#45;0x46161158b1947d9149e066d6d31af1283b2d377c_eth&#45;0x27e843260c71443b4cc8cb6bf226c3f77b9695af_0xa0b86991c6218b36c1d19d4a2e9eb0ce3606eb48_false&#45;&gt;eth&#45;0x27e843260c71443b4cc8cb6bf226c3f77b9695af -->
<g id="edge14" class="edge i-7-i w-3-w k-label_eth-0x46161158b1947d9149e066d6d31af1283b2d377c_eth-0x27e843260c71443b4cc8cb6bf226c3f77b9695af_0xa0b86991c6218b36c1d19d4a2e9eb0ce3606eb48_false-&gt;eth-0x27e843260c71443b4cc8cb6bf226c3f77b9695af-k edge-bound">
<title>label_eth-0x46161158b1947d9149e066d6d31af1283b2d377c_eth-0x27e843260c71443b4cc8cb6bf226c3f77b9695af_0xa0b86991c6218b36c1d19d4a2e9eb0ce3606eb48_false-&gt;eth-0x27e843260c71443b4cc8cb6bf226c3f77b9695af</title>
<g id="a_edge14"><a xlink:title="from:0x46161158b1947d9149e066d6d31af1283b2d377c to:0x27e843260c71443b4cc8cb6bf226c3f77b9695af">
<path fill="none" stroke="#2875ca" stroke-width="3" d="M1096.5,-292L1103.0416666666667,-292C1109.5833333333333,-292,1122.6666666666667,-292,1135.75,-298.25C1148.8333333333333,-304.5,1161.9166666666667,-317,1175,-329.5C1188.0833333333333,-342,1201.1666666666667,-354.5,1213.5,-360.75C1225.8333333333333,-367,1237.4166666666667,-367,1243.2083333333333,-367L1249,-367"/>
<polygon fill="#2875ca" stroke="#2875ca" stroke-width="3" points="1239,-370 1249,-367 1239,-364 1239,-370"/>
</a>
</g>
</g>
<!-- label_eth&#45;0x6cfa86a352339e766ff1ca119c8c40824f41f22d_eth&#45;0x0000000000000000000000000000000000000000_0x46161158b1947d9149e066d6d31af1283b2d377c_false&#45;&gt;eth&#45;0x0000000000000000000000000000000000000000 -->
<g id="edge16" class="edge i-8-i w-3-w k-label_eth-0x6cfa86a352339e766ff1ca119c8c40824f41f22d_eth-0x0000000000000000000000000000000000000000_0x46161158b1947d9149e066d6d31af1283b2d377c_false-&gt;eth-0x0000000000000000000000000000000000000000-k edge-bound">
<title>label_eth-0x6cfa86a352339e766ff1ca119c8c40824f41f22d_eth-0x0000000000000000000000000000000000000000_0x46161158b1947d9149e066d6d31af1283b2d377c_false-&gt;eth-0x0000000000000000000000000000000000000000</title>
<g id="a_edge16"><a xlink:title="from:0x6cfa86a352339e766ff1ca119c8c40824f41f22d to:0x0000000000000000000000000000000000000000">
<path fill="none" stroke="#b5b4b2" stroke-width="3" d="M1961.5,-422L1968.0416666666667,-422C1974.5833333333333,-422,1987.6666666666667,-422,2000.75,-417.4166666666667C2013.8333333333333,-412.8333333333333,2026.9166666666667,-403.6666666666667,2040,-394.5C2053.0833333333335,-385.3333333333333,2066.1666666666665,-376.1666666666667,2078.5,-371.5833333333333C2090.8333333333335,-367,2102.4166666666665,-367,2108.2083333333335,-367L2114,-367"/>
<polygon fill="#b5b4b2" stroke="#b5b4b2" stroke-width="3" points="2104,-370 2114,-367 2104,-364 2104,-370"/>
</a>
</g>
</g>
</g>
</svg>